<?xml version="1.0" encoding="iso-8859-1"?>
<!-- Generator: Adobe Illustrator 19.0.0, SVG Export Plug-In . SVG Version: 6.00 Build 0)  -->
<svg version="1.1" id="Capa_1" xmlns="http://www.w3.org/2000/svg" xmlns:xlink="http://www.w3.org/1999/xlink" x="0px" y="0px"
	 viewBox="0 0 512 512" style="enable-background:new 0 200 512 512;" xml:space="preserve">
<g>
	<g>
		<path style="fill:#ea8685;" d="M488.504,68.891l-68.89-68.889l-137.26,137.259l66.92,66.92c-18.177,27.262-40.031,53.716-65.084,78.768
			c-25.541,25.541-52.492,47.728-80.256,66.081l-66.674-66.674L0,419.615l70.488,70.487l0.429,0.413
			c28.846,26.654,77.54,28.569,137.112,5.394c55.876-21.737,116.395-63.455,170.409-117.469
			c54.66-54.66,96.619-115.809,118.149-172.185C506.879,179.309,512,154.669,512,133.131C512,106.447,504.137,84.524,488.504,68.891
			z M325.044,137.261l94.57-94.569l29.391,29.391l-94.57,94.569L325.044,137.261z M42.69,419.615l94.57-94.569l29.39,29.391
			l-94.569,94.569L42.69,419.615z M468.388,195.485c-20.047,52.494-59.572,109.888-111.294,161.61
			c-51.121,51.121-107.946,90.428-160.008,110.682c-45.848,17.836-83.306,18.661-103.516,2.43l94.426-94.426l11.67,11.67
			l10.177-6.344c33.262-20.733,65.458-46.577,95.693-76.813c29.722-29.721,55.231-61.387,75.819-94.118l6.412-10.194l-11.986-11.986
			l94.384-94.384C486.192,113.606,485.638,150.316,468.388,195.485z"/>
	</g>
</g>
<g>
</g>
<g>
</g>
<g>
</g>
<g>
</g>
<g>
</g>
<g>
</g>
<g>
</g>
<g>
</g>
<g>
</g>
<g>
</g>
<g>
</g>
<g>
</g>
<g>
</g>
<g>
</g>
<g>
</g>
</svg>
