<svg xmlns="http://www.w3.org/2000/svg" width="52.364" height="45" viewBox="0 0 52.364 45">
    <path id="Path_9099" data-name="Path 9099"
        d="M.819,43.1a3.666,3.666,0,0,1,2.864-1.367H43.6l.356-2.554A3.7,3.7,0,0,1,47.6,36h3.129a1.636,1.636,0,0,1,0,3.273H47.6a.411.411,0,0,0-.405.353L42.776,71.284a3.7,3.7,0,0,1-3.647,3.173H37.355a4.909,4.909,0,1,1-9.255,0H19.355a4.909,4.909,0,1,1-9.255,0H6.546a1.636,1.636,0,1,1,0-3.273H39.13a.411.411,0,0,0,.405-.353l.407-2.92H7.716A3.7,3.7,0,0,1,4.115,65L.083,46.183A3.665,3.665,0,0,1,.819,43.1Zm30.272,33a1.636,1.636,0,1,0,1.636-1.636A1.638,1.638,0,0,0,31.091,76.093Zm-18,0a1.636,1.636,0,1,0,1.636-1.636A1.638,1.638,0,0,0,13.091,76.093ZM3.283,45.5,7.315,64.314a.412.412,0,0,0,.4.324H40.4L43.139,45H3.683a.409.409,0,0,0-.4.495Z"
        transform="translate(0 -36.002)" fill="#fff" />
</svg>