<svg xmlns="http://www.w3.org/2000/svg" width="111.281" height="51.94" viewBox="0 0 111.281 51.94">
  <g id="tims_logo" data-name="tims logo" transform="translate(-957.867 -557.699)">
    <path id="Path_4618" data-name="Path 4618" d="M1014.97,589.887l-.144-.083a6.99,6.99,0,0,0,.315-3.42,5.486,5.486,0,0,0-1.185-3.207,2.1,2.1,0,0,0-3.7.511c-.182.381-.333.777-.505,1.162a2.539,2.539,0,0,1-.264.495c-1.694,2.236-3.356,4.5-5.1,6.693a26.894,26.894,0,0,1-9.525,7.575.906.906,0,0,1-1.018.012c-.333-.259-.093-.587-.014-.867a49.94,49.94,0,0,1,4.9-11.908,1.2,1.2,0,0,0-.151-1.73,4.887,4.887,0,0,0-2.526-1.616,2.447,2.447,0,0,0-2.933.97,23.276,23.276,0,0,0-1.741,2.727,53.593,53.593,0,0,0-4.24,11.617,14.116,14.116,0,0,0-.368,6.281,3.958,3.958,0,0,0,2.946,3.473,4.287,4.287,0,0,0,3.289-.318,26,26,0,0,0,3.132-2.062,66.233,66.233,0,0,0,8.658-8.746c.11-.127.222-.252.332-.379a.994.994,0,0,1-.076.516c-.465,1.3-.957,2.584-1.39,3.89a12.13,12.13,0,0,0-.918,3.912,3.168,3.168,0,0,0,2.06,3.122c1.661.7,2.426.559,3.685-.672a3.731,3.731,0,0,0,.264-.269c1.034-1.239,2.123-2.438,3.088-3.729,2.338-3.125,4.612-6.3,6.928-9.439a20.213,20.213,0,0,1,1.431-1.681,2.453,2.453,0,0,1,.619-.363,2.547,2.547,0,0,1,.174.733,9.7,9.7,0,0,1-.223,1.627c-.678,2.846-1.384,5.685-2.07,8.528a9.347,9.347,0,0,0-.514,3.087,2.7,2.7,0,0,0,1.32,2.255,3.362,3.362,0,0,0,4.18-.63,5.617,5.617,0,0,0,.462-.533c1.364-1.914,2.732-3.825,4.077-5.752,1.408-2.017,2.78-4.059,4.2-6.071a9.412,9.412,0,0,1,1.144-1.241c.1-.1.306-.1.463-.153a1.472,1.472,0,0,1,.086.465c-.205,1.378-.43,2.753-.644,4.13a11.305,11.305,0,0,0,.532,5.784,5.926,5.926,0,0,0,5.608,4.17c.461-.013,1,.053,1.247-.461.233-.477-.112-.856-.322-1.256a9.856,9.856,0,0,1-.823-1.725,19.978,19.978,0,0,1,.142-10.762c.493-1.923,1.042-3.833,1.49-5.767a3.575,3.575,0,0,0-.188-2.7,3.935,3.935,0,0,0-5.124-1.774,10.714,10.714,0,0,0-3.456,2.312c-1.167,1.094-2.314,2.209-3.474,3.31-.162.154-.349.282-.635.51-.055-.478-.1-.826-.135-1.175a21.215,21.215,0,0,0-.223-2.52A4.42,4.42,0,0,0,1025,583.12a4.316,4.316,0,0,0-4.7,1.162q-2.344,2.476-4.678,4.963C1015.414,589.466,1015.188,589.673,1014.97,589.887ZM982,567.063c-.08.266-.123.427-.176.585q-2.932,8.695-5.863,17.39-2.685,8.01-5.329,16.033a4.466,4.466,0,0,0,.6,4.413c.233.295.433.616.672.905a6.932,6.932,0,0,0,3.222,2.27,1.975,1.975,0,0,0,2.77-1.316c.181-.48.267-1,.411-1.49,1.386-4.778,2.743-9.564,4.171-14.329,2.519-8.407,5.087-16.8,7.615-25.2a.8.8,0,0,1,.773-.689c1.946-.208,3.886-.485,5.836-.648a24.816,24.816,0,0,1,6.377.085,9.143,9.143,0,0,1,2.383.792,1.352,1.352,0,0,1,.666,1.8,3.594,3.594,0,0,1-.425,1.037,1.4,1.4,0,0,0,.942,2.085,3.574,3.574,0,0,0,3.414-1.109,8.992,8.992,0,0,0,2-3.042,5.174,5.174,0,0,0-1.209-5.88,8.887,8.887,0,0,0-2.3-1.591,14.831,14.831,0,0,0-6.088-1.407c-1.688-.078-3.384-.061-5.073,0-2.678.092-5.364.152-8.028.408q-5.725.55-11.422,1.378a73.275,73.275,0,0,0-12.8,3.109,8.237,8.237,0,0,0-3.683,2.5,15.777,15.777,0,0,0-2.926,5.37,19.745,19.745,0,0,0-.629,2.354,1.058,1.058,0,0,0,1.219,1.387,2.712,2.712,0,0,0,.976-.294,70.774,70.774,0,0,1,19.279-6.516C980.218,567.3,981.069,567.2,982,567.063Zm72.826,42.574c.172,0,.345.009.517,0q.375-.023.749-.069c4.188-.516,7.645-2.234,9.782-6.05a6.574,6.574,0,0,0,.711-5.036,5.527,5.527,0,0,0-3.334-3.661c-1.9-.849-3.831-1.629-5.743-2.452a1.17,1.17,0,0,1-.584-1.814,10.449,10.449,0,0,1,3.153-3.376,6.409,6.409,0,0,1,6.581-.736,6.342,6.342,0,0,0,1.2.412.859.859,0,0,0,1.188-.78,8.4,8.4,0,0,0-1.37-6.133,3.438,3.438,0,0,0-3.224-1.569,10.3,10.3,0,0,0-3.76.941,22.446,22.446,0,0,0-9.192,8.238,5.653,5.653,0,0,0-.86,2.51,6.458,6.458,0,0,0,4.108,6.373c1.509.464,3,1,4.477,1.553a6.108,6.108,0,0,1,1.426.8,1.067,1.067,0,0,1,.388,1.525,6.713,6.713,0,0,1-1.142,1.587,8.633,8.633,0,0,1-4.254,2.168,8.329,8.329,0,0,1-6.618-.806,10.049,10.049,0,0,0-1.564-.75,2.573,2.573,0,0,0-.912-.161c-.358,0-.544.212-.481.588a7.348,7.348,0,0,0,3.582,5.414A10.158,10.158,0,0,0,1054.829,609.636Zm-1.385-34.36a2.367,2.367,0,0,0-.608-1.8,8.719,8.719,0,0,0-3.352-2.106,2.193,2.193,0,0,0-2.968,1.131,9.686,9.686,0,0,0-1.125,3.508.572.572,0,0,0,.467.7c.377.093.768.131,1.152.2a.915.915,0,0,1,.831.817,3.6,3.6,0,0,1-.441,2.4c-.532.97-1.188,1.872-1.777,2.811a5.128,5.128,0,0,0-.515.99c-.156.441-.047.521.411.464a5.453,5.453,0,0,0,2.414-.974,14.506,14.506,0,0,0,4.418-4.862A7.353,7.353,0,0,0,1053.444,575.276Zm-49.079.956c.158-2.125-.532-3.1-2.512-3.647-.03-.008-.059-.021-.09-.028a3.521,3.521,0,0,0-3.994,1.36,16.277,16.277,0,0,0-1.363,2.295,4.9,4.9,0,0,0-.521,2.408,3.7,3.7,0,0,0,3.665,3.435,4.6,4.6,0,0,0,3.563-2.077A7.133,7.133,0,0,0,1004.365,576.232Z" fill="#ea282e"/>
    <path id="Path_4619" data-name="Path 4619" d="M1059.46,628.007c.219-.214.444-.42.654-.642q2.341-2.479,4.678-4.963a4.316,4.316,0,0,1,4.7-1.162,4.421,4.421,0,0,1,3.109,3.625,21.262,21.262,0,0,1,.223,2.52c.03.35.079.7.134,1.175.286-.228.473-.356.636-.51,1.16-1.1,2.307-2.216,3.474-3.31a10.72,10.72,0,0,1,3.456-2.312,3.934,3.934,0,0,1,5.123,1.774,3.574,3.574,0,0,1,.189,2.7c-.448,1.934-1,3.844-1.489,5.767a19.977,19.977,0,0,0-.142,10.762,9.859,9.859,0,0,0,.823,1.725c.209.4.555.779.322,1.256-.251.514-.786.448-1.247.461a5.927,5.927,0,0,1-5.608-4.17,11.31,11.31,0,0,1-.532-5.784c.213-1.376.439-2.751.644-4.13a1.475,1.475,0,0,0-.087-.465c-.157.048-.359.051-.463.153a9.416,9.416,0,0,0-1.143,1.241c-1.415,2.012-2.788,4.054-4.2,6.071-1.345,1.927-2.713,3.837-4.077,5.752a5.566,5.566,0,0,1-.462.533,3.362,3.362,0,0,1-4.18.63,2.7,2.7,0,0,1-1.32-2.255,9.346,9.346,0,0,1,.514-3.087c.686-2.844,1.392-5.683,2.07-8.528a9.67,9.67,0,0,0,.223-1.627,2.538,2.538,0,0,0-.174-.733,2.445,2.445,0,0,0-.619.363,20.185,20.185,0,0,0-1.432,1.681c-2.316,3.141-4.59,6.314-6.927,9.439-.965,1.291-2.054,2.489-3.088,3.728a3.7,3.7,0,0,1-.263.269c-1.26,1.232-2.024,1.371-3.685.672a3.168,3.168,0,0,1-2.06-3.122,12.136,12.136,0,0,1,.918-3.912c.433-1.307.925-2.594,1.39-3.89a.994.994,0,0,0,.076-.516c-.111.127-.222.252-.332.379a66.238,66.238,0,0,1-8.657,8.746,26,26,0,0,1-3.132,2.062,4.287,4.287,0,0,1-3.289.318,3.957,3.957,0,0,1-2.946-3.473,14.114,14.114,0,0,1,.368-6.281,53.587,53.587,0,0,1,4.24-11.617,23.31,23.31,0,0,1,1.741-2.727,2.448,2.448,0,0,1,2.933-.97,4.888,4.888,0,0,1,2.526,1.616,1.2,1.2,0,0,1,.151,1.73,49.928,49.928,0,0,0-4.9,11.908c-.079.28-.318.609.014.867a.907.907,0,0,0,1.018-.012,26.9,26.9,0,0,0,9.525-7.575c1.745-2.195,3.407-4.457,5.1-6.693a2.529,2.529,0,0,0,.264-.495c.173-.385.324-.781.505-1.162a2.1,2.1,0,0,1,3.7-.511,5.487,5.487,0,0,1,1.185,3.207,6.989,6.989,0,0,1-.315,3.42Z" transform="translate(-44.49 -38.12)" fill="#ea282e"/>
    <path id="Path_4620" data-name="Path 4620" d="M982,567.063c-.935.135-1.785.234-2.627.385a70.774,70.774,0,0,0-19.279,6.516,2.712,2.712,0,0,1-.976.294,1.058,1.058,0,0,1-1.219-1.387,19.745,19.745,0,0,1,.629-2.354,15.777,15.777,0,0,1,2.926-5.37,8.237,8.237,0,0,1,3.683-2.5,73.275,73.275,0,0,1,12.8-3.109q5.691-.829,11.422-1.378c2.665-.256,5.35-.316,8.028-.408,1.689-.058,3.385-.074,5.073,0a14.831,14.831,0,0,1,6.088,1.407,8.887,8.887,0,0,1,2.3,1.591,5.174,5.174,0,0,1,1.209,5.88,8.992,8.992,0,0,1-2,3.042,3.574,3.574,0,0,1-3.414,1.109,1.4,1.4,0,0,1-.942-2.085,3.594,3.594,0,0,0,.425-1.037,1.352,1.352,0,0,0-.666-1.8,9.143,9.143,0,0,0-2.383-.792,24.816,24.816,0,0,0-6.377-.085c-1.95.164-3.89.441-5.836.648a.8.8,0,0,0-.773.689c-2.528,8.4-5.1,16.8-7.615,25.2-1.428,4.765-2.785,9.552-4.171,14.329-.144.495-.23,1.01-.411,1.49a1.975,1.975,0,0,1-2.77,1.316,6.932,6.932,0,0,1-3.222-2.27c-.239-.289-.439-.61-.672-.905a4.466,4.466,0,0,1-.6-4.413q2.631-8.027,5.329-16.033,2.917-8.7,5.863-17.39C981.881,567.49,981.924,567.329,982,567.063Z" fill="#ea282e"/>
    <path id="Path_4621" data-name="Path 4621" d="M1191.584,641.676a10.158,10.158,0,0,1-5.178-1.286,7.347,7.347,0,0,1-3.582-5.414c-.063-.376.123-.592.481-.588a2.578,2.578,0,0,1,.912.161,10.066,10.066,0,0,1,1.564.75,8.328,8.328,0,0,0,6.617.806,8.634,8.634,0,0,0,4.255-2.168,6.716,6.716,0,0,0,1.142-1.587,1.067,1.067,0,0,0-.388-1.525,6.108,6.108,0,0,0-1.426-.8c-1.48-.552-2.968-1.089-4.477-1.553a6.458,6.458,0,0,1-4.108-6.373,5.652,5.652,0,0,1,.86-2.51,22.443,22.443,0,0,1,9.192-8.238,10.3,10.3,0,0,1,3.76-.941,3.438,3.438,0,0,1,3.224,1.569,8.4,8.4,0,0,1,1.369,6.133.859.859,0,0,1-1.188.78,6.346,6.346,0,0,1-1.2-.412,6.409,6.409,0,0,0-6.581.736,10.448,10.448,0,0,0-3.153,3.376,1.17,1.17,0,0,0,.584,1.814c1.912.823,3.843,1.6,5.742,2.452a5.528,5.528,0,0,1,3.334,3.661,6.573,6.573,0,0,1-.711,5.036c-2.137,3.815-5.594,5.534-9.782,6.05q-.373.046-.749.069C1191.93,641.685,1191.756,641.676,1191.584,641.676Z" transform="translate(-136.755 -32.04)" fill="#ea282e"/>
    <path id="Path_4622" data-name="Path 4622" d="M1188.623,596.181a7.362,7.362,0,0,1-1.094,3.287,14.508,14.508,0,0,1-4.418,4.862,5.454,5.454,0,0,1-2.413.974c-.458.056-.567-.023-.411-.464a5.129,5.129,0,0,1,.515-.99c.589-.94,1.245-1.841,1.777-2.811a3.6,3.6,0,0,0,.441-2.4.915.915,0,0,0-.831-.817c-.384-.068-.775-.106-1.152-.2a.571.571,0,0,1-.466-.7,9.688,9.688,0,0,1,1.125-3.508,2.193,2.193,0,0,1,2.968-1.131,8.718,8.718,0,0,1,3.352,2.107A2.367,2.367,0,0,1,1188.623,596.181Z" transform="translate(-135.179 -20.905)" fill="#ea282e"/>
    <path id="Path_4623" data-name="Path 4623" d="M1063.313,599.036a7.134,7.134,0,0,1-1.253,3.745,4.6,4.6,0,0,1-3.563,2.077,3.7,3.7,0,0,1-3.664-3.435,4.894,4.894,0,0,1,.521-2.408,16.279,16.279,0,0,1,1.363-2.295,3.521,3.521,0,0,1,3.995-1.36c.03.007.06.02.09.028C1062.781,595.934,1063.471,596.911,1063.313,599.036Z" transform="translate(-58.949 -22.804)" fill="#ea282e"/>
  </g>
</svg>
