<svg id="play" xmlns="http://www.w3.org/2000/svg" width="173.008" height="173.008" viewBox="0 0 173.008 173.008">
  <g id="Group_58" data-name="Group 58">
    <g id="Group_57" data-name="Group 57">
      <path id="Path_5398" data-name="Path 5398" d="M147.675,25.333A86.519,86.519,0,1,0,173.008,86.5,86.233,86.233,0,0,0,147.675,25.333ZM140.26,140.26a76.077,76.077,0,0,1-107.512,0A76.5,76.5,0,0,1,10.5,86.5a76,76,0,1,1,152,0A76.5,76.5,0,0,1,140.26,140.26Z" fill="#fff"/>
    </g>
  </g>
  <g id="Group_60" data-name="Group 60" transform="translate(51.696 39.43)">
    <g id="Group_59" data-name="Group 59">
      <path id="Path_5399" data-name="Path 5399" d="M183.2,117.473a23.658,23.658,0,0,1-1.648-2.06l-.412-.412a7.4,7.4,0,0,0-2.06-1.442L148.6,96.053a.2.2,0,0,1-.206-.206L117.7,78.134a11.628,11.628,0,0,0-8.65-1.236,12.068,12.068,0,0,0-7,5.355,15.529,15.529,0,0,0-1.236,2.678c-.206.618-.206,1.442-.412,2.266v71.881A11.252,11.252,0,0,0,111.728,170.4a9.328,9.328,0,0,0,3.3-.618,12.583,12.583,0,0,0,2.883-1.442l30.276-17.507.412-.206,30.482-17.507c.206,0,.206-.206.412-.206a11.575,11.575,0,0,0,4.943-6.8A10.743,10.743,0,0,0,183.2,117.473Zm-8.856,6.385a.443.443,0,0,1-.412.412h-.206l-30.276,17.713-.206.206-30.276,17.507c-.206,0-.206.206-.412.206a.2.2,0,0,0-.206.206h-.206c-.206,0-.412-.206-.618-.206a.757.757,0,0,1-.206-.618V87.814c.206-.206.412-.412.618-.412h.618l30.482,17.507.206.206,30.688,17.713.206.206.206.206Q174.34,123.549,174.34,123.857Z" transform="translate(-100.4 -76.578)" fill="#fff"/>
    </g>
  </g>
</svg>
